<svg version="1.1"
      xmlns="http://www.w3.org/2000/svg"
      xmlns:xlink="http://www.w3.org/1999/xlink"  id="snapshot-51790" width="250" height="250" viewBox="0 0 250 250"><desc>This image was made on Patterninja.com</desc><defs>
<!-- image 68766 -->
<g id="transformed-68766" data-image="68766" transform="translate(-187.5, -187.5) rotate(316, 187.5, 187.5)"><g><svg version="1.1" width="375px" height="375px" viewBox="0 0 375 375"><g id="original-68766"><svg xmlns="http://www.w3.org/2000/svg" fill="none" viewBox="0 0 619 618" xmlns:xlink="http://www.w3.org/1999/xlink" version="1.1" preserveAspectRatio="xMidYMid meet">
  <rect width="554" height="553" x="32.5" y="32.5" stroke-width="7" rx="75.5" filter="url(#a)" fill="rgba(0, 0, 0, 1)" stroke="rgba(226, 232, 240, 1)"/>
  <path d="M151.161 410.637v32.168h27.741V176.27h-27.741v234.367z" filter="url(#a)" fill="rgba(255, 255, 255, 1)" stroke="none"/>
  <path d="M269.062 410.637v32.168h27.741V176.27h-27.741v234.367z" filter="url(#a)" fill="rgba(255, 255, 255, 1)" stroke="none"/>
  <path d="M438.978 410.637v32.168h27.741V176.27h-27.741v234.367z" filter="url(#a)" fill="rgba(255, 255, 255, 1)" stroke="none"/>
  <path d="M432.282 203.961h6.696v-27.692h-55.483v27.692h48.787z" filter="url(#a)" fill="rgba(255, 255, 255, 1)" stroke="none"/>
  <path d="M432.282 442.805h6.696v-27.692h-55.483v27.692h48.787z" filter="url(#a)" fill="rgba(255, 255, 255, 1)" stroke="none"/>
  <path d="M210.111 332.276v6.684h27.742v-55.384h-27.742v48.7z" filter="url(#a)" fill="rgba(255, 255, 255, 1)" stroke="none"/>
  <path d="M345.59 203.961h6.696v-27.692h-55.483v27.692h48.787z" filter="url(#a)" fill="rgba(255, 255, 255, 1)" stroke="none"/>
  <path d="M345.59 442.805h6.696v-27.692h-55.483v27.692h48.787z" filter="url(#a)" fill="rgba(255, 255, 255, 1)" stroke="none"/>
  <defs>
    <filter id="a" width="619" height="618" x="0" y="0" filterUnits="userSpaceOnUse" color-interpolation-filters="sRGB">
      <feFlood flood-opacity="0" result="BackgroundImageFix"/>
      <feColorMatrix in="SourceAlpha" values="0 0 0 0 0 0 0 0 0 0 0 0 0 0 0 0 0 0 127 0" result="hardAlpha"/>
      <feOffset/>
      <feGaussianBlur stdDeviation="14.5"/>
      <feComposite in2="hardAlpha" operator="out"/>
      <feColorMatrix values="0 0 0 0 0 0 0 0 0 0 0 0 0 0 0 0 0 0 0.25 0"/>
      <feBlend in2="BackgroundImageFix" result="effect1_dropShadow_413_2"/>
      <feBlend in="SourceGraphic" in2="effect1_dropShadow_413_2" result="shape"/>
    </filter>
  </defs>
</svg>
</g></svg></g></g>
<!-- /image 68766 -->
</defs><rect x="0" y="0" width="250" height="250" fill="rgba(0, 0, 0, 0)"></rect><use xlink:href="#transformed-68766" transform="translate(-250, -250)"></use><use xlink:href="#transformed-68766" transform="translate(0, -250)"></use><use xlink:href="#transformed-68766" transform="translate(250, -250)"></use><use xlink:href="#transformed-68766" transform="translate(-250, 0)"></use><use xlink:href="#transformed-68766" transform="translate(0, 0)"></use><use xlink:href="#transformed-68766" transform="translate(250, 0)"></use><use xlink:href="#transformed-68766" transform="translate(-250, 250)"></use><use xlink:href="#transformed-68766" transform="translate(0, 250)"></use><use xlink:href="#transformed-68766" transform="translate(250, 250)"></use></svg>